<mxfile host="Electron" agent="Mozilla/5.0 (Windows NT 10.0; Win64; x64) AppleWebKit/537.36 (KHTML, like Gecko) draw.io/24.7.5 Chrome/126.0.6478.183 Electron/31.3.0 Safari/537.36" version="24.7.5">
  <diagram name="Page-1" id="e56a1550-8fbb-45ad-956c-1786394a9013">
    <mxGraphModel dx="1434" dy="836" grid="1" gridSize="10" guides="1" tooltips="1" connect="1" arrows="1" fold="1" page="1" pageScale="1" pageWidth="1100" pageHeight="850" background="none" math="0" shadow="0">
      <root>
        <mxCell id="0" />
        <mxCell id="1" parent="0" />
        <mxCell id="2e49270ec7c68f3f-56" value="" style="edgeStyle=orthogonalEdgeStyle;html=1;endArrow=ERzeroToMany;endFill=1;startArrow=ERzeroToMany;labelBackgroundColor=none;fontFamily=Verdana;fontSize=14;entryX=0;entryY=0.5;exitX=0;exitY=0.5;" parent="1" source="2e49270ec7c68f3f-49" edge="1">
          <mxGeometry width="100" height="100" relative="1" as="geometry">
            <mxPoint x="120" y="650" as="sourcePoint" />
            <mxPoint x="290" y="481" as="targetPoint" />
            <Array as="points">
              <mxPoint x="250" y="621" />
              <mxPoint x="250" y="481" />
            </Array>
          </mxGeometry>
        </mxCell>
        <mxCell id="2e49270ec7c68f3f-80" value="Authors" style="swimlane;html=1;fontStyle=0;childLayout=stackLayout;horizontal=1;startSize=26;horizontalStack=0;resizeParent=1;resizeLast=0;collapsible=1;marginBottom=0;swimlaneFillColor=#ffffff;align=center;rounded=0;shadow=0;comic=0;labelBackgroundColor=none;strokeWidth=1;fontFamily=Verdana;fontSize=14" parent="1" vertex="1">
          <mxGeometry x="70" y="311" width="160" height="114" as="geometry" />
        </mxCell>
        <mxCell id="2e49270ec7c68f3f-81" value="id" style="shape=partialRectangle;top=0;left=0;right=0;bottom=1;html=1;align=left;verticalAlign=middle;spacingLeft=34;spacingRight=4;whiteSpace=wrap;overflow=hidden;rotatable=0;points=[[0,0.5],[1,0.5]];portConstraint=eastwest;dropTarget=0;fontStyle=5;" parent="2e49270ec7c68f3f-80" vertex="1">
          <mxGeometry y="26" width="160" height="30" as="geometry" />
        </mxCell>
        <mxCell id="2e49270ec7c68f3f-82" value="PK" style="shape=partialRectangle;top=0;left=0;bottom=0;html=1;align=left;verticalAlign=middle;spacingLeft=4;spacingRight=4;whiteSpace=wrap;overflow=hidden;rotatable=0;points=[];portConstraint=eastwest;part=1;" parent="2e49270ec7c68f3f-81" vertex="1" connectable="0">
          <mxGeometry width="30" height="30" as="geometry" />
        </mxCell>
        <mxCell id="2e49270ec7c68f3f-83" value="name" style="shape=partialRectangle;top=0;left=0;right=0;bottom=0;html=1;align=left;verticalAlign=top;spacingLeft=34;spacingRight=4;whiteSpace=wrap;overflow=hidden;rotatable=0;points=[[0,0.5],[1,0.5]];portConstraint=eastwest;dropTarget=0;" parent="2e49270ec7c68f3f-80" vertex="1">
          <mxGeometry y="56" width="160" height="30" as="geometry" />
        </mxCell>
        <mxCell id="2e49270ec7c68f3f-84" value="" style="shape=partialRectangle;top=0;left=0;bottom=0;html=1;align=left;verticalAlign=top;spacingLeft=4;spacingRight=4;whiteSpace=wrap;overflow=hidden;rotatable=0;points=[];portConstraint=eastwest;part=1;" parent="2e49270ec7c68f3f-83" vertex="1" connectable="0">
          <mxGeometry width="30" height="26" as="geometry" />
        </mxCell>
        <mxCell id="2e49270ec7c68f3f-85" value="birth_year" style="shape=partialRectangle;top=0;left=0;right=0;bottom=0;html=1;align=left;verticalAlign=top;spacingLeft=34;spacingRight=4;whiteSpace=wrap;overflow=hidden;rotatable=0;points=[[0,0.5],[1,0.5]];portConstraint=eastwest;dropTarget=0;" parent="2e49270ec7c68f3f-80" vertex="1">
          <mxGeometry y="86" width="160" height="28" as="geometry" />
        </mxCell>
        <mxCell id="2e49270ec7c68f3f-86" value="" style="shape=partialRectangle;top=0;left=0;bottom=0;html=1;align=left;verticalAlign=top;spacingLeft=4;spacingRight=4;whiteSpace=wrap;overflow=hidden;rotatable=0;points=[];portConstraint=eastwest;part=1;" parent="2e49270ec7c68f3f-85" vertex="1" connectable="0">
          <mxGeometry width="30" height="28" as="geometry" />
        </mxCell>
        <mxCell id="fQxxsiM6_IE5iiFZQvYv-4" style="shape=partialRectangle;top=0;left=0;right=0;bottom=0;html=1;align=left;verticalAlign=top;spacingLeft=34;spacingRight=4;whiteSpace=wrap;overflow=hidden;rotatable=0;points=[[0,0.5],[1,0.5]];portConstraint=eastwest;dropTarget=0;" vertex="1" parent="2e49270ec7c68f3f-80">
          <mxGeometry y="114" width="160" as="geometry" />
        </mxCell>
        <mxCell id="fQxxsiM6_IE5iiFZQvYv-10" value="Books" style="swimlane;html=1;fontStyle=0;childLayout=stackLayout;horizontal=1;startSize=26;horizontalStack=0;resizeParent=1;resizeLast=0;collapsible=1;marginBottom=0;swimlaneFillColor=#ffffff;align=center;rounded=0;shadow=0;comic=0;labelBackgroundColor=none;strokeWidth=1;fontFamily=Verdana;fontSize=14" vertex="1" parent="1">
          <mxGeometry x="340" y="400" width="160" height="140" as="geometry" />
        </mxCell>
        <mxCell id="fQxxsiM6_IE5iiFZQvYv-11" value="id" style="shape=partialRectangle;top=0;left=0;right=0;bottom=1;html=1;align=left;verticalAlign=middle;spacingLeft=34;spacingRight=4;whiteSpace=wrap;overflow=hidden;rotatable=0;points=[[0,0.5],[1,0.5]];portConstraint=eastwest;dropTarget=0;fontStyle=5;" vertex="1" parent="fQxxsiM6_IE5iiFZQvYv-10">
          <mxGeometry y="26" width="160" height="30" as="geometry" />
        </mxCell>
        <mxCell id="fQxxsiM6_IE5iiFZQvYv-12" value="PK" style="shape=partialRectangle;top=0;left=0;bottom=0;html=1;align=left;verticalAlign=middle;spacingLeft=4;spacingRight=4;whiteSpace=wrap;overflow=hidden;rotatable=0;points=[];portConstraint=eastwest;part=1;" vertex="1" connectable="0" parent="fQxxsiM6_IE5iiFZQvYv-11">
          <mxGeometry width="30" height="30" as="geometry" />
        </mxCell>
        <mxCell id="fQxxsiM6_IE5iiFZQvYv-13" value="title" style="shape=partialRectangle;top=0;left=0;right=0;bottom=0;html=1;align=left;verticalAlign=top;spacingLeft=34;spacingRight=4;whiteSpace=wrap;overflow=hidden;rotatable=0;points=[[0,0.5],[1,0.5]];portConstraint=eastwest;dropTarget=0;" vertex="1" parent="fQxxsiM6_IE5iiFZQvYv-10">
          <mxGeometry y="56" width="160" height="26" as="geometry" />
        </mxCell>
        <mxCell id="fQxxsiM6_IE5iiFZQvYv-14" value="" style="shape=partialRectangle;top=0;left=0;bottom=0;html=1;align=left;verticalAlign=top;spacingLeft=4;spacingRight=4;whiteSpace=wrap;overflow=hidden;rotatable=0;points=[];portConstraint=eastwest;part=1;" vertex="1" connectable="0" parent="fQxxsiM6_IE5iiFZQvYv-13">
          <mxGeometry width="30" height="26" as="geometry" />
        </mxCell>
        <mxCell id="fQxxsiM6_IE5iiFZQvYv-15" value="author_id" style="shape=partialRectangle;top=0;left=0;right=0;bottom=0;html=1;align=left;verticalAlign=top;spacingLeft=34;spacingRight=4;whiteSpace=wrap;overflow=hidden;rotatable=0;points=[[0,0.5],[1,0.5]];portConstraint=eastwest;dropTarget=0;" vertex="1" parent="fQxxsiM6_IE5iiFZQvYv-10">
          <mxGeometry y="82" width="160" height="28" as="geometry" />
        </mxCell>
        <mxCell id="fQxxsiM6_IE5iiFZQvYv-16" value="FK" style="shape=partialRectangle;top=0;left=0;bottom=0;html=1;align=left;verticalAlign=top;spacingLeft=4;spacingRight=4;whiteSpace=wrap;overflow=hidden;rotatable=0;points=[];portConstraint=eastwest;part=1;" vertex="1" connectable="0" parent="fQxxsiM6_IE5iiFZQvYv-15">
          <mxGeometry width="30" height="28" as="geometry" />
        </mxCell>
        <mxCell id="fQxxsiM6_IE5iiFZQvYv-20" value="published_year" style="shape=partialRectangle;top=0;left=0;right=0;bottom=0;html=1;align=left;verticalAlign=top;spacingLeft=34;spacingRight=4;whiteSpace=wrap;overflow=hidden;rotatable=0;points=[[0,0.5],[1,0.5]];portConstraint=eastwest;dropTarget=0;" vertex="1" parent="fQxxsiM6_IE5iiFZQvYv-10">
          <mxGeometry y="110" width="160" height="30" as="geometry" />
        </mxCell>
        <mxCell id="fQxxsiM6_IE5iiFZQvYv-21" value="" style="shape=partialRectangle;top=0;left=0;bottom=0;html=1;align=left;verticalAlign=top;spacingLeft=4;spacingRight=4;whiteSpace=wrap;overflow=hidden;rotatable=0;points=[];portConstraint=eastwest;part=1;" vertex="1" connectable="0" parent="fQxxsiM6_IE5iiFZQvYv-20">
          <mxGeometry width="30" height="28" as="geometry" />
        </mxCell>
        <mxCell id="fQxxsiM6_IE5iiFZQvYv-17" style="shape=partialRectangle;top=0;left=0;right=0;bottom=0;html=1;align=left;verticalAlign=top;spacingLeft=34;spacingRight=4;whiteSpace=wrap;overflow=hidden;rotatable=0;points=[[0,0.5],[1,0.5]];portConstraint=eastwest;dropTarget=0;" vertex="1" parent="fQxxsiM6_IE5iiFZQvYv-10">
          <mxGeometry y="140" width="160" as="geometry" />
        </mxCell>
        <mxCell id="fQxxsiM6_IE5iiFZQvYv-22" value="BorrowedBooks" style="swimlane;html=1;fontStyle=0;childLayout=stackLayout;horizontal=1;startSize=26;horizontalStack=0;resizeParent=1;resizeLast=0;collapsible=1;marginBottom=0;swimlaneFillColor=#ffffff;align=center;rounded=0;shadow=0;comic=0;labelBackgroundColor=none;strokeWidth=1;fontFamily=Verdana;fontSize=14" vertex="1" parent="1">
          <mxGeometry x="590" y="200" width="160" height="140" as="geometry" />
        </mxCell>
        <mxCell id="fQxxsiM6_IE5iiFZQvYv-23" value="id" style="shape=partialRectangle;top=0;left=0;right=0;bottom=1;html=1;align=left;verticalAlign=middle;spacingLeft=34;spacingRight=4;whiteSpace=wrap;overflow=hidden;rotatable=0;points=[[0,0.5],[1,0.5]];portConstraint=eastwest;dropTarget=0;fontStyle=5;" vertex="1" parent="fQxxsiM6_IE5iiFZQvYv-22">
          <mxGeometry y="26" width="160" height="30" as="geometry" />
        </mxCell>
        <mxCell id="fQxxsiM6_IE5iiFZQvYv-24" value="PK" style="shape=partialRectangle;top=0;left=0;bottom=0;html=1;align=left;verticalAlign=middle;spacingLeft=4;spacingRight=4;whiteSpace=wrap;overflow=hidden;rotatable=0;points=[];portConstraint=eastwest;part=1;" vertex="1" connectable="0" parent="fQxxsiM6_IE5iiFZQvYv-23">
          <mxGeometry width="30" height="30" as="geometry" />
        </mxCell>
        <mxCell id="fQxxsiM6_IE5iiFZQvYv-25" value="borrower_id" style="shape=partialRectangle;top=0;left=0;right=0;bottom=0;html=1;align=left;verticalAlign=top;spacingLeft=34;spacingRight=4;whiteSpace=wrap;overflow=hidden;rotatable=0;points=[[0,0.5],[1,0.5]];portConstraint=eastwest;dropTarget=0;" vertex="1" parent="fQxxsiM6_IE5iiFZQvYv-22">
          <mxGeometry y="56" width="160" height="26" as="geometry" />
        </mxCell>
        <mxCell id="fQxxsiM6_IE5iiFZQvYv-26" value="FK" style="shape=partialRectangle;top=0;left=0;bottom=0;html=1;align=left;verticalAlign=top;spacingLeft=4;spacingRight=4;whiteSpace=wrap;overflow=hidden;rotatable=0;points=[];portConstraint=eastwest;part=1;" vertex="1" connectable="0" parent="fQxxsiM6_IE5iiFZQvYv-25">
          <mxGeometry width="30" height="26" as="geometry" />
        </mxCell>
        <mxCell id="fQxxsiM6_IE5iiFZQvYv-27" value="book_id" style="shape=partialRectangle;top=0;left=0;right=0;bottom=0;html=1;align=left;verticalAlign=top;spacingLeft=34;spacingRight=4;whiteSpace=wrap;overflow=hidden;rotatable=0;points=[[0,0.5],[1,0.5]];portConstraint=eastwest;dropTarget=0;" vertex="1" parent="fQxxsiM6_IE5iiFZQvYv-22">
          <mxGeometry y="82" width="160" height="28" as="geometry" />
        </mxCell>
        <mxCell id="fQxxsiM6_IE5iiFZQvYv-28" value="FK" style="shape=partialRectangle;top=0;left=0;bottom=0;html=1;align=left;verticalAlign=top;spacingLeft=4;spacingRight=4;whiteSpace=wrap;overflow=hidden;rotatable=0;points=[];portConstraint=eastwest;part=1;" vertex="1" connectable="0" parent="fQxxsiM6_IE5iiFZQvYv-27">
          <mxGeometry width="30" height="28" as="geometry" />
        </mxCell>
        <mxCell id="fQxxsiM6_IE5iiFZQvYv-29" value="borrower_date" style="shape=partialRectangle;top=0;left=0;right=0;bottom=0;html=1;align=left;verticalAlign=top;spacingLeft=34;spacingRight=4;whiteSpace=wrap;overflow=hidden;rotatable=0;points=[[0,0.5],[1,0.5]];portConstraint=eastwest;dropTarget=0;" vertex="1" parent="fQxxsiM6_IE5iiFZQvYv-22">
          <mxGeometry y="110" width="160" height="30" as="geometry" />
        </mxCell>
        <mxCell id="fQxxsiM6_IE5iiFZQvYv-30" value="" style="shape=partialRectangle;top=0;left=0;bottom=0;html=1;align=left;verticalAlign=top;spacingLeft=4;spacingRight=4;whiteSpace=wrap;overflow=hidden;rotatable=0;points=[];portConstraint=eastwest;part=1;" vertex="1" connectable="0" parent="fQxxsiM6_IE5iiFZQvYv-29">
          <mxGeometry width="30" height="28" as="geometry" />
        </mxCell>
        <mxCell id="fQxxsiM6_IE5iiFZQvYv-31" style="shape=partialRectangle;top=0;left=0;right=0;bottom=0;html=1;align=left;verticalAlign=top;spacingLeft=34;spacingRight=4;whiteSpace=wrap;overflow=hidden;rotatable=0;points=[[0,0.5],[1,0.5]];portConstraint=eastwest;dropTarget=0;" vertex="1" parent="fQxxsiM6_IE5iiFZQvYv-22">
          <mxGeometry y="140" width="160" as="geometry" />
        </mxCell>
        <mxCell id="fQxxsiM6_IE5iiFZQvYv-32" value="Borrowers" style="swimlane;html=1;fontStyle=0;childLayout=stackLayout;horizontal=1;startSize=26;horizontalStack=0;resizeParent=1;resizeLast=0;collapsible=1;marginBottom=0;swimlaneFillColor=#ffffff;align=center;rounded=0;shadow=0;comic=0;labelBackgroundColor=none;strokeWidth=1;fontFamily=Verdana;fontSize=14" vertex="1" parent="1">
          <mxGeometry x="840" y="430" width="160" height="110" as="geometry" />
        </mxCell>
        <mxCell id="fQxxsiM6_IE5iiFZQvYv-33" value="id" style="shape=partialRectangle;top=0;left=0;right=0;bottom=1;html=1;align=left;verticalAlign=middle;spacingLeft=34;spacingRight=4;whiteSpace=wrap;overflow=hidden;rotatable=0;points=[[0,0.5],[1,0.5]];portConstraint=eastwest;dropTarget=0;fontStyle=5;" vertex="1" parent="fQxxsiM6_IE5iiFZQvYv-32">
          <mxGeometry y="26" width="160" height="30" as="geometry" />
        </mxCell>
        <mxCell id="fQxxsiM6_IE5iiFZQvYv-34" value="PK" style="shape=partialRectangle;top=0;left=0;bottom=0;html=1;align=left;verticalAlign=middle;spacingLeft=4;spacingRight=4;whiteSpace=wrap;overflow=hidden;rotatable=0;points=[];portConstraint=eastwest;part=1;" vertex="1" connectable="0" parent="fQxxsiM6_IE5iiFZQvYv-33">
          <mxGeometry width="30" height="30" as="geometry" />
        </mxCell>
        <mxCell id="fQxxsiM6_IE5iiFZQvYv-35" value="name" style="shape=partialRectangle;top=0;left=0;right=0;bottom=0;html=1;align=left;verticalAlign=top;spacingLeft=34;spacingRight=4;whiteSpace=wrap;overflow=hidden;rotatable=0;points=[[0,0.5],[1,0.5]];portConstraint=eastwest;dropTarget=0;" vertex="1" parent="fQxxsiM6_IE5iiFZQvYv-32">
          <mxGeometry y="56" width="160" height="26" as="geometry" />
        </mxCell>
        <mxCell id="fQxxsiM6_IE5iiFZQvYv-36" value="" style="shape=partialRectangle;top=0;left=0;bottom=0;html=1;align=left;verticalAlign=top;spacingLeft=4;spacingRight=4;whiteSpace=wrap;overflow=hidden;rotatable=0;points=[];portConstraint=eastwest;part=1;" vertex="1" connectable="0" parent="fQxxsiM6_IE5iiFZQvYv-35">
          <mxGeometry width="30" height="26" as="geometry" />
        </mxCell>
        <mxCell id="fQxxsiM6_IE5iiFZQvYv-37" value="contact_info" style="shape=partialRectangle;top=0;left=0;right=0;bottom=0;html=1;align=left;verticalAlign=top;spacingLeft=34;spacingRight=4;whiteSpace=wrap;overflow=hidden;rotatable=0;points=[[0,0.5],[1,0.5]];portConstraint=eastwest;dropTarget=0;" vertex="1" parent="fQxxsiM6_IE5iiFZQvYv-32">
          <mxGeometry y="82" width="160" height="28" as="geometry" />
        </mxCell>
        <mxCell id="fQxxsiM6_IE5iiFZQvYv-38" value="" style="shape=partialRectangle;top=0;left=0;bottom=0;html=1;align=left;verticalAlign=top;spacingLeft=4;spacingRight=4;whiteSpace=wrap;overflow=hidden;rotatable=0;points=[];portConstraint=eastwest;part=1;" vertex="1" connectable="0" parent="fQxxsiM6_IE5iiFZQvYv-37">
          <mxGeometry width="30" height="28" as="geometry" />
        </mxCell>
        <mxCell id="fQxxsiM6_IE5iiFZQvYv-41" style="shape=partialRectangle;top=0;left=0;right=0;bottom=0;html=1;align=left;verticalAlign=top;spacingLeft=34;spacingRight=4;whiteSpace=wrap;overflow=hidden;rotatable=0;points=[[0,0.5],[1,0.5]];portConstraint=eastwest;dropTarget=0;" vertex="1" parent="fQxxsiM6_IE5iiFZQvYv-32">
          <mxGeometry y="110" width="160" as="geometry" />
        </mxCell>
        <mxCell id="fQxxsiM6_IE5iiFZQvYv-43" value="" style="edgeStyle=entityRelationEdgeStyle;fontSize=12;html=1;endArrow=ERoneToMany;rounded=0;fontFamily=Helvetica;fontColor=default;exitX=1;exitY=0.5;exitDx=0;exitDy=0;entryX=0;entryY=0.5;entryDx=0;entryDy=0;" edge="1" parent="1" source="2e49270ec7c68f3f-81" target="fQxxsiM6_IE5iiFZQvYv-15">
          <mxGeometry width="100" height="100" relative="1" as="geometry">
            <mxPoint x="130" y="430" as="sourcePoint" />
            <mxPoint x="230" y="330" as="targetPoint" />
          </mxGeometry>
        </mxCell>
        <mxCell id="fQxxsiM6_IE5iiFZQvYv-46" value="" style="edgeStyle=orthogonalEdgeStyle;fontSize=12;html=1;endArrow=ERoneToMany;rounded=0;fontFamily=Helvetica;fontColor=default;exitX=0;exitY=0.5;exitDx=0;exitDy=0;entryX=1;entryY=0.5;entryDx=0;entryDy=0;" edge="1" parent="1" source="fQxxsiM6_IE5iiFZQvYv-33" target="fQxxsiM6_IE5iiFZQvYv-25">
          <mxGeometry width="100" height="100" relative="1" as="geometry">
            <mxPoint x="590" y="410" as="sourcePoint" />
            <mxPoint x="680" y="290" as="targetPoint" />
          </mxGeometry>
        </mxCell>
        <mxCell id="fQxxsiM6_IE5iiFZQvYv-49" value="BUSINESS RULES:&lt;div&gt;&lt;br&gt;&lt;/div&gt;&lt;div style=&quot;&quot;&gt;&lt;div style=&quot;text-align: left;&quot;&gt;&lt;span style=&quot;text-wrap: nowrap; background-color: initial;&quot;&gt;Authors to Books: One-to-Many&lt;/span&gt;&lt;/div&gt;&lt;div style=&quot;text-align: left; text-wrap: nowrap;&quot;&gt;An author can write multiple books, but a book is written by one author.&lt;/div&gt;&lt;div style=&quot;text-align: left; text-wrap: nowrap;&quot;&gt;&lt;br&gt;&lt;/div&gt;&lt;div style=&quot;text-align: left; text-wrap: nowrap;&quot;&gt;Borrowers to Borrowed Books: One-to-Many&lt;/div&gt;&lt;div style=&quot;text-align: left; text-wrap: nowrap;&quot;&gt;A borrower can borrow multiple books, but a borrowed book is associated&amp;nbsp;&lt;/div&gt;&lt;div style=&quot;text-align: left; text-wrap: nowrap;&quot;&gt;with one borrower&lt;/div&gt;&lt;div style=&quot;text-align: left; text-wrap: nowrap;&quot;&gt;&lt;br&gt;&lt;/div&gt;&lt;div style=&quot;text-align: left; text-wrap: nowrap;&quot;&gt;Books to BorrowedBooks: One-to-Many&lt;/div&gt;&lt;div style=&quot;text-align: left; text-wrap: nowrap;&quot;&gt;A book can be borrowed multiple times, but each borrowing entry relates to&lt;/div&gt;&lt;div style=&quot;text-align: left; text-wrap: nowrap;&quot;&gt;one specific book.&lt;/div&gt;&lt;div style=&quot;text-align: left; text-wrap: nowrap;&quot;&gt;&lt;br&gt;&lt;/div&gt;&lt;/div&gt;" style="whiteSpace=wrap;html=1;strokeColor=default;align=center;verticalAlign=top;spacingLeft=34;spacingRight=4;fontFamily=Helvetica;fontSize=12;fontColor=default;fillColor=default;" vertex="1" parent="1">
          <mxGeometry x="30" y="10" width="440" height="190" as="geometry" />
        </mxCell>
        <mxCell id="fQxxsiM6_IE5iiFZQvYv-50" value="" style="edgeStyle=orthogonalEdgeStyle;fontSize=12;html=1;endArrow=ERoneToMany;rounded=0;fontFamily=Helvetica;fontColor=default;exitX=1;exitY=0.5;exitDx=0;exitDy=0;entryX=0;entryY=0.5;entryDx=0;entryDy=0;" edge="1" parent="1" source="fQxxsiM6_IE5iiFZQvYv-11" target="fQxxsiM6_IE5iiFZQvYv-27">
          <mxGeometry width="100" height="100" relative="1" as="geometry">
            <mxPoint x="850" y="481" as="sourcePoint" />
            <mxPoint x="760" y="279" as="targetPoint" />
          </mxGeometry>
        </mxCell>
      </root>
    </mxGraphModel>
  </diagram>
</mxfile>
